<?xml version="1.0" encoding="utf-8"?>
<!-- Generator: Adobe Illustrator 17.0.0, SVG Export Plug-In . SVG Version: 6.00 Build 0)  -->
<!DOCTYPE svg PUBLIC "-//W3C//DTD SVG 1.1//EN" "http://www.w3.org/Graphics/SVG/1.1/DTD/svg11.dtd">
<svg version="1.1" id="Capa_1" xmlns="http://www.w3.org/2000/svg" xmlns:xlink="http://www.w3.org/1999/xlink" x="0px" y="0px"
	 width="495.268px" height="232.618px" viewBox="0 0 495.268 232.618" enable-background="new 0 0 495.268 232.618"
	 xml:space="preserve">
<g>
	<g>
		<g>
			<linearGradient id="SVGID_1_" gradientUnits="userSpaceOnUse" x1="201.5585" y1="-16.6608" x2="296.4354" y2="147.671">
				<stop  offset="0" style="stop-color:#1B89A5"/>
				<stop  offset="1" style="stop-color:#334050"/>
			</linearGradient>
			<polygon fill="url(#SVGID_1_)" points="89.23,86.022 85.487,80.615 109.004,64.336 118.297,62.089 121.285,64.991 128.486,57.24 
				131.709,48.664 143.383,42.887 144.786,49.016 145.025,48.999 148.654,24.864 156.235,9.97 163.238,5.463 167.333,6.949 
				186.946,2.537 189.616,0 243.326,6.475 260.226,8.812 321.335,26.179 330.154,26.613 340.233,31.593 344.298,29.275 
				348.476,30.385 352.2,26.576 379.004,26.576 380.279,27.988 386.452,25.252 406.307,39.655 408.867,50.459 412.273,80.792 
				405.738,81.526 402.354,51.394 400.478,43.55 385.656,32.797 378.588,35.932 376.08,33.151 354.967,33.151 350.495,37.726 
				345.214,36.321 340.454,39.035 328.465,33.114 320.261,32.709 258.652,15.2 242.488,12.997 191.902,6.899 190.161,8.554 
				166.898,13.786 164.058,12.756 161.288,14.538 154.998,26.896 150.746,55.17 139.637,55.99 138.833,52.476 136.951,53.407 
				134.186,60.765 121.525,74.394 116.317,69.332 111.739,70.44 			"/>
		</g>
		<g>
			<linearGradient id="SVGID_2_" gradientUnits="userSpaceOnUse" x1="155.1553" y1="-3.853" x2="340.1129" y2="316.5028">
				<stop  offset="0" style="stop-color:#1B89A5"/>
				<stop  offset="1" style="stop-color:#334050"/>
			</linearGradient>
			<path fill="url(#SVGID_2_)" d="M478.83,86.607v59.439v2.454l1.607,1.854l6.464,7.454l-6.841,9.545l-1.231,1.717v2.113v54.86
				H16.439v-53.765v-2.258l-1.387-1.782l-6.76-8.682l6.813-8.993l1.334-1.761v-2.21V86.607H478.83 M485.405,80.031H9.863v66.562
				L0,159.612l9.863,12.666v60.34h475.542v-61.435l9.863-13.763l-9.863-11.374V80.031L485.405,80.031z"/>
		</g>
	</g>
	<g>
		<g>
			<path fill="#334050" d="M49.433,203.495c0,0.691-0.217,1.255-0.648,1.692c-0.433,0.437-0.997,0.655-1.692,0.655h-8.382
				c-0.696,0-1.266-0.218-1.713-0.655c-0.447-0.437-0.67-1.001-0.67-1.692v-8.392h2.957v8.138h7.192v-7.884l-9.192-11.035
				c-0.638-0.761-0.956-1.599-0.956-2.516v-6.701c0-0.69,0.223-1.254,0.67-1.691c0.447-0.437,1.017-0.656,1.713-0.656h8.382
				c0.695,0,1.259,0.219,1.692,0.656c0.432,0.437,0.648,1.001,0.648,1.691v7.695h-2.957v-7.441h-7.192v6.976l9.234,11.035
				c0.61,0.733,0.914,1.557,0.914,2.473V203.495z"/>
			<path fill="#334050" d="M102.718,203.495c0,0.691-0.223,1.255-0.67,1.692c-0.447,0.437-1.018,0.655-1.713,0.655h-9.318
				c-0.696,0-1.263-0.218-1.703-0.655c-0.439-0.437-0.659-1.001-0.659-1.692v-28.39c0-0.69,0.22-1.254,0.659-1.691
				s1.007-0.656,1.703-0.656h9.318c0.695,0,1.266,0.219,1.713,0.656s0.67,1.001,0.67,1.691V203.495z M99.761,203.241v-27.882h-8.148
				v27.882H99.761z"/>
			<path fill="#334050" d="M152.662,205.842h-10.638v-33.084h2.958v30.483h7.68V205.842z"/>
			<path fill="#334050" d="M204.498,203.495c0,0.691-0.223,1.255-0.67,1.692c-0.447,0.437-1.018,0.655-1.713,0.655h-9.063
				c-0.696,0-1.263-0.218-1.703-0.655c-0.439-0.437-0.659-1.001-0.659-1.692v-30.737h2.958v30.483h7.893v-30.483h2.957V203.495z"/>
			<path fill="#334050" d="M255.273,175.359h-5.149v30.483h-2.958v-30.483h-5.192v-2.601h13.298V175.359z"/>
			<path fill="#334050" d="M295.856,205.842h-2.958v-33.084h2.958V205.842z"/>
			<path fill="#334050" d="M349.459,203.495c0,0.691-0.223,1.255-0.67,1.692c-0.447,0.437-1.018,0.655-1.713,0.655h-9.318
				c-0.696,0-1.263-0.218-1.703-0.655c-0.439-0.437-0.659-1.001-0.659-1.692v-28.39c0-0.69,0.22-1.254,0.659-1.691
				c0.439-0.437,1.007-0.656,1.703-0.656h9.318c0.695,0,1.266,0.219,1.713,0.656c0.447,0.437,0.67,1.001,0.67,1.691V203.495z
				 M346.502,203.241v-27.882h-8.148v27.882H346.502z"/>
			<path fill="#334050" d="M402.488,205.842h-2.042l-8.893-24.331v24.331h-2.788v-33.084h2.212l8.724,23.909v-23.909h2.787V205.842z
				"/>
			<path fill="#334050" d="M454.773,203.495c0,0.691-0.217,1.255-0.648,1.692c-0.433,0.437-0.997,0.655-1.692,0.655h-8.382
				c-0.696,0-1.266-0.218-1.713-0.655c-0.447-0.437-0.67-1.001-0.67-1.692v-8.392h2.957v8.138h7.192v-7.884l-9.192-11.035
				c-0.638-0.761-0.956-1.599-0.956-2.516v-6.701c0-0.69,0.223-1.254,0.67-1.691c0.447-0.437,1.017-0.656,1.713-0.656h8.382
				c0.695,0,1.259,0.219,1.692,0.656c0.432,0.437,0.648,1.001,0.648,1.691v7.695h-2.957v-7.441h-7.192v6.976l9.234,11.035
				c0.61,0.733,0.914,1.557,0.914,2.473V203.495z"/>
		</g>
	</g>
	<g>
		<g>
			<path fill="#334050" d="M71.073,159.675l-9.784-16.204c-0.764,0.076-1.605,0.076-2.446,0.076H46.154v16.128h-9.019v-53.506
				h21.708c13.682,0,21.555,6.65,21.555,18.269c0,8.561-3.975,14.599-11.083,17.35l12,17.887H71.073z M58.843,135.444
				c8.255,0,12.995-3.516,12.995-10.777c0-7.032-4.739-10.396-12.995-10.396H46.154v21.173H58.843z"/>
			<path fill="#334050" d="M152.323,132.921c0,15.288-12.383,27.135-28.358,27.135c-15.976,0-28.358-11.847-28.358-27.135
				c0-15.363,12.382-26.982,28.358-26.982C139.94,105.939,152.323,117.634,152.323,132.921z M104.779,132.921
				c0,10.625,8.79,19.033,19.262,19.033c10.472,0,19.033-8.408,19.033-19.033c0-10.624-8.561-18.88-19.033-18.88
				C113.493,114.041,104.779,122.297,104.779,132.921z"/>
			<path fill="#334050" d="M203.534,159.675l-9.784-16.204c-0.764,0.076-1.605,0.076-2.446,0.076h-12.689v16.128h-9.019v-53.506
				h21.708c13.682,0,21.555,6.65,21.555,18.269c0,8.561-3.975,14.599-11.083,17.35l12,17.887H203.534z M191.304,135.444
				c8.255,0,12.995-3.516,12.995-10.777c0-7.032-4.739-10.396-12.995-10.396h-12.689v21.173H191.304z"/>
			<path fill="#334050" d="M267.052,147.597h-26.983l-5.121,12.077h-9.402l23.619-53.506h9.249l23.39,53.506h-9.631L267.052,147.597
				z M263.612,139.571l-10.09-23.772l-10.09,23.772H263.612z"/>
			<path fill="#334050" d="M305.575,106.168v53.506h-9.02v-53.506H305.575z"/>
			<path fill="#334050" d="M337.982,106.168l17.656,35.544l17.581-35.544h10.625v53.506h-8.332l-0.076-39.977l-16.893,34.397h-5.885
				l-16.892-34.397v39.977h-8.485v-53.506H337.982z"/>
			<path fill="#334050" d="M440.175,147.597h-26.982l-5.122,12.077h-9.402l23.62-53.506h9.249l23.39,53.506h-9.631L440.175,147.597z
				 M436.736,139.571l-10.09-23.772l-10.09,23.772H436.736z"/>
		</g>
	</g>
</g>
</svg>
